# xmcd
#
# Track frame offsets:
#	150
#	21282
#	40562
#	55810
#	74720
#	88632
#	109170
#	128452
#	138382
#	155892
#
# Disc length: 2342 seconds
#
# Revision: 0
# Processed by: cddbd v1.4PL0 Copyright (c) Steve Scherf et al.
# Submitted via: dBpowerAMP V4.0
#
DISCID=8709240a
DTITLE=李蕙敏 - 請你不要哭
DYEAR=1997
DGENRE=
TTITLE0=請你不要哭
TTITLE1=多刺愛情
TTITLE2=謎樣的女人
TTITLE3=愛上寂寞
TTITLE4=醒醒
TTITLE5=星光滿天
TTITLE6=解脫
TTITLE7=一愛再愛
TTITLE8=影子
TTITLE9=有心人
EXTD=
EXTT0=
EXTT1=
EXTT2=
EXTT3=
EXTT4=
EXTT5=
EXTT6=
EXTT7=
EXTT8=
EXTT9=
PLAYORDER=
